<svg width="128" height="128" viewBox="0 0 128 128" fill="none" xmlns="http://www.w3.org/2000/svg"><circle cx="64" cy="64" r="64" fill="#f6821f"/><path opacity=".92" d="M80.725 26.795h-53.93a8.875 8.875 0 0 0-8.875 8.874v67.584a8.875 8.875 0 0 0 8.875 8.875h53.93a8.875 8.875 0 0 0 8.875-8.875V35.669a8.875 8.875 0 0 0-8.875-8.874" fill="#fff3e6"/><path d="M77.312 38.4H30.208a6.144 6.144 0 0 0-6.144 6.144v28.672a6.144 6.144 0 0 0 6.144 6.144h47.104a6.144 6.144 0 0 0 6.144-6.144V44.544a6.144 6.144 0 0 0-6.144-6.144" fill="#5e8bff"/><path d="M73.216 52.736a5.461 5.461 0 1 0 0-10.923 5.461 5.461 0 0 0 0 10.923" fill="#ffd166"/><path d="M100.523 15.872H41.131a9.557 9.557 0 0 0-9.558 9.557v74.752c0 5.279 4.28 9.558 9.558 9.558h59.392c5.278 0 9.557-4.279 9.557-9.558V25.429a9.557 9.557 0 0 0-9.557-9.557" fill="#fff"/><path d="M97.11 30.208H44.543a6.144 6.144 0 0 0-6.144 6.144V69.12a6.144 6.144 0 0 0 6.144 6.144h52.565a6.144 6.144 0 0 0 6.144-6.144V36.352a6.144 6.144 0 0 0-6.144-6.144" fill="#fff3e6"/><path d="M71.184 59.464c-.017 1.239-.09 2.472-.53 3.654-.823 2.209-2.42 3.506-4.701 3.967a10 10 0 0 1-1.885.177c-2.922.028-5.844.029-8.767.04h-.175v-6.587h.258c2.682.012 5.365.02 8.046.003a4.7 4.7 0 0 0 1.278-.193 2.005 2.005 0 0 0 1.473-1.867c.042-.9.064-1.805.038-2.706-.034-1.244-.928-2.132-2.173-2.177-1.032-.037-2.066-.039-3.1-.042-1.854-.006-3.709-.002-5.564-.01h-.256V48.51h.236c2.541 0 5.083.007 7.624-.009a3.5 3.5 0 0 0 1.109-.185c.734-.257 1.183-.98 1.19-1.812q.005-.692 0-1.384c-.002-1.06-.718-1.781-1.771-1.782h-8.347v-5.172h.207c3.723.013 7.447.008 11.17.016.771.002 1.55.036 2.246.424.822.458 1.348 1.154 1.398 2.104.059 1.108.047 2.218.048 3.328.002.778-.005 1.558-.044 2.335-.054 1.07-.326 2.078-1.025 2.925-.57.69-1.278 1.181-2.166 1.383-.012.003-.02.017-.05.043.107.022.201.038.293.06 1.927.488 3.184 1.657 3.605 3.625.154.723.245 1.465.29 2.203.056.948.057 1.901.044 2.852m10.171.061c-.003 1.225-.169 2.43-.72 3.542-1.04 2.095-2.722 3.39-4.962 3.984-1.024.27-2.068.272-3.128.243V62.36c.32-.023.638-.032.952-.07 1.335-.165 2.198-.938 2.704-2.151.335-.805.477-1.66.495-2.522.046-2.222.063-4.444.077-6.667a72 72 0 0 0-.043-3.07c-.035-.967-.154-1.922-.527-2.83-.52-1.267-1.516-1.953-2.883-1.967-.517-.005-1.034 0-1.561 0v-4.895c.022-.008.04-.022.058-.022.937.013 1.879-.027 2.81.053a7.18 7.18 0 0 1 4.363 1.933 7.18 7.18 0 0 1 2.242 4.112c.08.457.126.926.127 1.39q.012 7.088-.004 14.176zm5.174-21.331v29.092c-.065.004-.125.011-.184.012q-1.395.004-2.791.001-.176-.001-.346-.04c-.207-.049-.342-.182-.374-.393-.02-.135-.02-.275-.02-.412q.002-13.755-.007-27.508c0-.532.224-.747.748-.75q1.137-.004 2.275-.002z" fill="#5e8bff"/></svg>